# xmcd
#
# Track frame offsets:
# 150
# 25692
# 53352
# 79917
# 115577
# 145072
# 202800
# 230285
# 266405
#
# Disc length: 4375 seconds
#
#
# Revision: 0
# Processed by: cddbd v1.5.2PL0 Copyright (c) Steve Scherf et al.
# Submitted via: FreeRIP 2.945 
#
DISCID=62111509
DTITLE=Mansfield, Howard and Kaiser - Into the Night
DYEAR=1995
DGENRE=Gospel
TTITLE0=Million DollarFeelin
TTITLE1=Lost Ship
TTITLE2=Queen of My Heart
TTITLE3=Stand by Me
TTITLE4=Where Would I Be?
TTITLE5=It's Only You
TTITLE6=The Mission
TTITLE7=If I Leave This World Tomorrow
TTITLE8=I Found Out
EXTD=
EXTT0=
EXTT1=
EXTT2=
EXTT3=
EXTT4=
EXTT5=
EXTT6=
EXTT7=
EXTT8=
PLAYORDER=
